<?xml version="1.0" encoding="utf-8" ?>
<svg xmlns="http://www.w3.org/2000/svg" xmlns:xlink="http://www.w3.org/1999/xlink" width="1024" height="1024">
	<path fill="#A7C957" transform="scale(2 2)" d="M0 0L0 512L512 512L512 0L0 0Z"/>
	<path fill="#386641" transform="scale(2 2)" d="M224.144 249.049C224.58 235.418 222.67 225.497 212.987 214.776C210.707 212.252 208.094 210.058 205.646 207.701C160.525 164.261 190.709 87.3013 253.897 86.2789C272.409 84.8378 294.086 93.8602 307.075 106.889C335.646 135.546 334.536 182.503 304.488 209.675C302.834 211.171 301.094 212.596 299.521 214.176C289.015 224.721 287.84 235.378 287.873 249.049L269.021 249.049C269.122 243.535 269.024 237.998 269.023 232.481L269.021 199.871C270.84 199.107 272.715 198.49 274.514 197.674C285.365 192.752 293.807 179.524 288.306 167.771C284.611 159.876 274.812 157.009 267.134 160.667C260.814 163.678 256.824 172.033 258.268 178.924C259.87 186.565 259.397 192.49 259.398 200.251L259.392 239.027C259.399 241.901 260.662 247.623 257.362 249.049C251.488 250.594 252.262 243.804 252.274 240.574L252.484 206.238C252.529 199.173 252.127 190.888 252.992 183.909C253.573 179.219 254.573 175.919 253.276 171.117C249.512 157.181 230.893 154.685 224.207 166.83C217.784 178.497 225.696 191.871 236.616 197.23C238.672 198.24 240.979 198.796 242.977 199.871C242.862 203.388 242.974 206.948 242.974 210.47L242.976 236.221C242.976 240.487 243.108 244.788 242.977 249.049C241.292 249.338 239.314 249.058 237.589 249.055L224.144 249.049ZM255.991 120.224C230.77 120.403 210.827 140.415 211.007 165.646C211.035 169.622 214.222 173.892 216.995 170.495C217.884 169.405 217.666 165.582 217.785 164.112C219.31 145.206 236.418 128.605 255.601 128.971C276.567 128.752 294.083 145.726 294.346 166.667C294.362 167.903 294.118 169.562 295.123 170.495C296.306 171.593 298.349 171.35 299.358 170.156C301.415 167.723 300.577 162.384 300.253 159.388C297.943 138.033 277.81 118.572 255.991 120.224Z"/>
	<path fill="#386641" transform="scale(2 2)" d="M275.476 185.793C263.349 187.141 260.729 169.359 272.445 168.046C281.985 166.112 289.013 181.301 275.476 185.793Z"/>
	<path fill="#386641" transform="scale(2 2)" d="M239.885 185.793C228.126 187.479 225.171 169.443 237.345 168.046C248.903 167.12 251.321 183.069 239.885 185.793Z"/>
	<path fill="#386641" transform="scale(2 2)" d="M224.144 272.826L224.144 259.465L280.953 259.466C283.255 259.467 285.574 259.554 287.873 259.465L287.873 272.826L224.144 272.826Z"/>
	<path fill="#386641" transform="scale(2 2)" d="M268.738 297.939C264.037 302.821 257.204 302.246 250.876 301.524C246.381 301.011 242.597 298.371 240.576 294.277C239.863 292.831 237.178 283.035 239.885 282.887L273.336 282.887C273.534 288.979 273.021 293.297 268.738 297.939Z"/>
	<path fill="#6A994E" transform="scale(2 2)" d="M65 436.074L65 350.076L86.3402 350.076C91.5072 350.076 95.6301 351.014 98.709 352.89C101.788 354.766 104.035 357.473 105.451 361.012C106.866 364.551 107.574 368.833 107.574 373.859C107.574 378.388 106.778 382.317 105.185 385.643C103.593 388.97 101.239 391.536 98.1251 393.341C95.0108 395.146 91.1178 396.048 86.4464 396.048L76.9972 396.048L76.9972 436.074L65 436.074ZM76.9972 387.448L82.5181 387.448C85.9863 387.448 88.7113 387.059 90.6932 386.28C92.675 385.502 94.0906 384.139 94.94 382.193C95.7893 380.246 96.214 377.504 96.214 373.965C96.214 369.859 95.9132 366.71 95.3116 364.516C94.7099 362.321 93.4536 360.8 91.5425 359.95C89.6315 359.101 86.6587 358.676 82.6242 358.676L76.9972 358.676L76.9972 387.448ZM114.581 436.074L114.581 374.708L125.942 374.708L125.942 383.414C128.207 379.663 130.472 377.15 132.737 375.876C135.001 374.602 137.266 373.965 139.531 373.965C139.815 373.965 140.08 373.965 140.328 373.965C140.575 373.965 140.912 374 141.336 374.071L141.336 386.599C140.487 386.245 139.514 385.944 138.417 385.696C137.32 385.449 136.205 385.325 135.072 385.325C133.303 385.325 131.693 385.732 130.242 386.546C128.79 387.36 127.357 388.935 125.942 391.27L125.942 436.074L114.581 436.074ZM164.906 436.924C160.376 436.924 156.802 436.003 154.183 434.163C151.564 432.323 149.706 429.704 148.609 426.307C147.512 422.909 146.963 418.91 146.963 414.309L146.963 396.473C146.963 391.872 147.512 387.873 148.609 384.476C149.706 381.078 151.564 378.459 154.183 376.619C156.802 374.779 160.376 373.859 164.906 373.859C169.436 373.859 172.993 374.779 175.576 376.619C178.159 378.459 180 381.078 181.097 384.476C182.194 387.873 182.743 391.872 182.743 396.473L182.743 414.309C182.743 418.91 182.194 422.909 181.097 426.307C180 429.704 178.159 432.323 175.576 434.163C172.993 436.003 169.436 436.924 164.906 436.924ZM164.906 428.536C167.1 428.536 168.64 427.899 169.524 426.625C170.409 425.351 170.94 423.67 171.117 421.582C171.294 419.494 171.382 417.317 171.382 415.053L171.382 395.836C171.382 393.5 171.294 391.306 171.117 389.253C170.94 387.201 170.409 385.52 169.524 384.21C168.64 382.901 167.1 382.246 164.906 382.246C162.712 382.246 161.155 382.901 160.235 384.21C159.314 385.52 158.766 387.201 158.589 389.253C158.412 391.306 158.324 393.5 158.324 395.836L158.324 415.053C158.324 417.317 158.412 419.494 158.589 421.582C158.766 423.67 159.314 425.351 160.235 426.625C161.155 427.899 162.712 428.536 164.906 428.536ZM196.757 436.074L196.757 383.095L189.431 383.095L189.431 374.708L196.757 374.708L196.757 371.523C196.757 367.418 197.2 364.02 198.084 361.33C198.969 358.641 200.473 356.624 202.596 355.279C204.72 353.934 207.621 353.262 211.302 353.262C212.223 353.262 213.195 353.297 214.222 353.368C215.249 353.438 216.327 353.545 217.46 353.686L217.46 362.18C216.752 362.038 216.062 361.932 215.39 361.861C214.718 361.79 214.098 361.755 213.532 361.755C211.337 361.755 209.887 362.357 209.179 363.56C208.471 364.763 208.117 366.78 208.117 369.612L208.117 374.708L233.173 374.708L233.173 436.074L221.813 436.074L221.813 383.095L208.117 383.095L208.117 436.074L196.757 436.074ZM222.875 365.577L222.875 353.686L233.28 353.686L233.28 365.577L222.875 365.577ZM261.627 436.924C258.442 436.924 255.876 436.322 253.93 435.119C251.984 433.915 250.567 432.217 249.683 430.023C248.798 427.828 248.356 425.245 248.356 422.272L248.356 382.246L241.879 382.246L241.879 374.708L248.356 374.708L248.356 356.765L259.716 356.765L259.716 374.708L269.59 374.708L269.59 382.246L259.716 382.246L259.716 421.529C259.716 423.935 260.106 425.652 260.884 426.678C261.662 427.704 263.148 428.218 265.343 428.218C265.909 428.218 266.564 428.182 267.307 428.111C268.05 428.041 268.775 427.97 269.484 427.899L269.484 436.287C268.068 436.499 266.758 436.658 265.555 436.764C264.352 436.87 263.042 436.924 261.627 436.924ZM278.933 436.074L278.933 350.076L300.273 350.076C305.44 350.076 309.563 351.014 312.642 352.89C315.721 354.766 317.968 357.473 319.384 361.012C320.799 364.551 321.507 368.833 321.507 373.859C321.507 378.388 320.711 382.317 319.118 385.643C317.526 388.97 315.172 391.536 312.058 393.341C308.944 395.146 305.051 396.048 300.379 396.048L290.93 396.048L290.93 436.074L278.933 436.074ZM290.93 387.448L296.451 387.448C299.919 387.448 302.644 387.059 304.626 386.28C306.608 385.502 308.023 384.139 308.873 382.193C309.722 380.246 310.147 377.504 310.147 373.965C310.147 369.859 309.846 366.71 309.244 364.516C308.642 362.321 307.386 360.8 305.475 359.95C303.564 359.101 300.591 358.676 296.557 358.676L290.93 358.676L290.93 387.448ZM329.682 436.074L329.682 374.708L341.042 374.708L341.042 436.074L329.682 436.074ZM329.682 365.577L329.682 353.686L341.042 353.686L341.042 365.577L329.682 365.577ZM354.313 436.074L354.313 350.076L365.674 350.076L365.674 436.074L354.313 436.074ZM394.446 436.924C389.915 436.924 386.342 436.003 383.723 434.163C381.103 432.323 379.245 429.704 378.149 426.307C377.052 422.909 376.503 418.91 376.503 414.309L376.503 396.473C376.503 391.872 377.052 387.873 378.149 384.476C379.245 381.078 381.103 378.459 383.723 376.619C386.342 374.779 389.915 373.859 394.446 373.859C398.976 373.859 402.533 374.779 405.116 376.619C407.699 378.459 409.54 381.078 410.637 384.476C411.733 387.873 412.282 391.872 412.282 396.473L412.282 414.309C412.282 418.91 411.733 422.909 410.637 426.307C409.54 429.704 407.699 432.323 405.116 434.163C402.533 436.003 398.976 436.924 394.446 436.924ZM394.446 428.536C396.64 428.536 398.18 427.899 399.064 426.625C399.949 425.351 400.479 423.67 400.657 421.582C400.834 419.494 400.922 417.317 400.922 415.053L400.922 395.836C400.922 393.5 400.834 391.306 400.657 389.253C400.479 387.201 399.949 385.52 399.064 384.21C398.18 382.901 396.64 382.246 394.446 382.246C392.251 382.246 390.695 382.901 389.774 384.21C388.854 385.52 388.306 387.201 388.129 389.253C387.951 391.306 387.863 393.5 387.863 395.836L387.863 415.053C387.863 417.317 387.951 419.494 388.129 421.582C388.306 423.67 388.854 425.351 389.774 426.625C390.695 427.899 392.251 428.536 394.446 428.536ZM439.037 436.924C435.852 436.924 433.286 436.322 431.34 435.119C429.394 433.915 427.977 432.217 427.093 430.023C426.209 427.828 425.766 425.245 425.766 422.272L425.766 382.246L419.29 382.246L419.29 374.708L425.766 374.708L425.766 356.765L437.126 356.765L437.126 374.708L447 374.708L447 382.246L437.126 382.246L437.126 421.529C437.126 423.935 437.516 425.652 438.294 426.678C439.072 427.704 440.559 428.218 442.753 428.218C443.319 428.218 443.974 428.182 444.717 428.111C445.461 428.041 446.186 427.97 446.894 427.899L446.894 436.287C445.479 436.499 444.168 436.658 442.966 436.764C441.763 436.87 440.452 436.924 439.037 436.924Z"/>
</svg>
